<svg xmlns="http://www.w3.org/2000/svg" xmlns:xlink="http://www.w3.org/1999/xlink" width="211.517" height="35.311" viewBox="0 0 211.517 35.311">
  <defs>
    <style>
      .cls-1 {
        fill: #b5d1d3;
      }

      .cls-1, .cls-2 {
        stroke: rgba(0,0,0,0);
      }

      .cls-2 {
        fill: #1f1f1f;
      }

      .cls-3 {
        clip-path: url(#clip-path);
      }

      .cls-4 {
        fill: none;
        stroke: #1f1f1f;
        stroke-miterlimit: 10;
      }
    </style>
    <clipPath id="clip-path">
      <circle id="Ellipse_4" data-name="Ellipse 4" class="cls-1" cx="17.156" cy="17.156" r="17.156"/>
    </clipPath>
  </defs>
  <g id="tidal_logo" transform="translate(-79.104 -78.61)">
    <g id="Logotype" transform="translate(79.604 83.061)">
      <path id="Path_8" data-name="Path 8" class="cls-2" d="M87.629,93.447l-3.382,2.522A7.506,7.506,0,0,0,82.241,98.2a1.413,1.413,0,0,1-1.6.631A1.445,1.445,0,0,1,79.6,97.459V93.447Zm10.317,0H89.921v24.732a4,4,0,0,1-1.146,2.78,9.179,9.179,0,0,0,9.171-9.171Zm2.293,0s2.006,1.49,3.353,2.522A7.506,7.506,0,0,1,105.6,98.2a1.441,1.441,0,0,0,2.665-.745V93.447Z" transform="translate(-79.604 -93.447)"/>
      <path id="Path_9" data-name="Path 9" class="cls-2" d="M237.6,93.447a3.877,3.877,0,0,0-1.147,2.78v15.562a9.161,9.161,0,0,1-9.171,9.171,3.878,3.878,0,0,0,1.146-2.78V96.227a3.877,3.877,0,0,0-1.146-2.78Z" transform="translate(-186.59 -93.447)"/>
      <path id="Path_10" data-name="Path 10" class="cls-2" d="M312.562,93.551h9.171v27.512h-9.171a4,4,0,0,0,1.146-2.78V96.331A4,4,0,0,0,312.562,93.551Zm13.756,27.512a13.756,13.756,0,0,0,0-27.512,19.373,19.373,0,0,1,0,27.512Z" transform="translate(-248.37 -93.522)"/>
      <path id="Path_11" data-name="Path 11" class="cls-2" d="M450.693,121.063h-9.171s.287-.373.659-.889a23.009,23.009,0,0,0,3.9-8.2.048.048,0,1,1,.057,0,23.005,23.005,0,0,0,3.9,8.2Zm6.1-12.61L452.986,96.99a22.284,22.284,0,0,0-2.522,3.353c-.745,1.175-1.49,2.379-1.49,2.379l2.866-9.171h9.171l8.254,24.761a4.461,4.461,0,0,0,1.118,1.777c.458.459.946.975.946.975H461.01s-.888-2.665-1.691-5.1a9.2,9.2,0,0,0-5.5-5.7c-2.35-.888-4.844-1.805-4.844-1.805Z" transform="translate(-341.794 -93.522)"/>
      <path id="Path_12" data-name="Path 12" class="cls-2" d="M600.452,121.063h-9.171a4,4,0,0,0,1.146-2.78V96.331a4,4,0,0,0-1.146-2.78,9.2,9.2,0,0,1,9.171,9.171Zm12.61,0v-3.582a2.012,2.012,0,0,0-1.318-1.863,1.978,1.978,0,0,0-2.178.63,14.337,14.337,0,0,1-2.493,2.436l-3.181,2.379Z" transform="translate(-450.287 -93.522)"/>
    </g>
    <g id="Group_4" data-name="Group 4" transform="translate(255.81 79.11)">
      <circle id="Ellipse_3" data-name="Ellipse 3" class="cls-1" cx="17.156" cy="17.156" r="17.156"/>
      <g id="Group_3" data-name="Group 3" class="cls-3">
        <path id="Path_13" data-name="Path 13" class="cls-4" d="M701.672,112.654c2.855-.986,5.468-1.989,5.468-1.989,9.093-2.934,13.98-2.832,23.056,0,2.125.663,6.26,2.021,6.455,2.08a14.316,14.316,0,0,0,9.025.1" transform="translate(-706.465 -100.403)"/>
        <path id="Path_14" data-name="Path 14" class="cls-4" d="M701.407,129.051c2.855-.986,5.468-1.989,5.468-1.989,9.093-2.934,13.98-2.832,23.056,0,2.125.663,6.261,2.021,6.455,2.08a14.315,14.315,0,0,0,9.025.1" transform="translate(-706.273 -112.282)"/>
        <path id="Path_15" data-name="Path 15" class="cls-4" d="M701.679,145.572c2.855-.986,5.468-1.99,5.468-1.99,9.093-2.934,13.98-2.832,23.056,0,2.125.663,6.26,2.021,6.455,2.08a14.314,14.314,0,0,0,9.025.1" transform="translate(-706.47 -124.251)"/>
        <path id="Path_16" data-name="Path 16" class="cls-4" d="M701.529,161.8c2.855-.986,5.468-1.99,5.468-1.99,9.093-2.934,13.98-2.832,23.056,0,2.125.663,6.261,2.021,6.455,2.08a14.316,14.316,0,0,0,9.025.1" transform="translate(-706.361 -136.003)"/>
        <path id="Path_17" data-name="Path 17" class="cls-4" d="M701.283,178.4c2.855-.986,5.468-1.99,5.468-1.99,9.093-2.934,13.98-2.832,23.056,0,2.125.663,6.26,2.021,6.455,2.08a14.316,14.316,0,0,0,9.025.1" transform="translate(-706.183 -148.036)"/>
        <path id="Path_18" data-name="Path 18" class="cls-4" d="M701.1,194.739c2.855-.986,5.468-1.99,5.468-1.99,9.094-2.934,13.98-2.832,23.056,0,2.125.663,6.26,2.021,6.455,2.08a14.316,14.316,0,0,0,9.025.1" transform="translate(-706.049 -159.869)"/>
        <path id="Path_19" data-name="Path 19" class="cls-4" d="M701.859,211.654c2.855-.986,5.468-1.989,5.468-1.989,9.093-2.934,13.98-2.832,23.056,0,2.125.663,6.26,2.021,6.455,2.08a14.316,14.316,0,0,0,9.025.1" transform="translate(-706.6 -172.123)"/>
      </g>
    </g>
  </g>
</svg>
